<mxfile host="app.diagrams.net" modified="2024-07-01T15:21:27.205Z" agent="Mozilla/5.0 (Windows NT 10.0; Win64; x64) AppleWebKit/537.36 (KHTML, like Gecko) Chrome/126.0.0.0 Safari/537.36" version="24.6.4" etag="k-dmpH77b5SzRCORlVBX" type="github">
  <diagram name="PÃ¡gina-1" id="hoty4xZRI18bzQ8FZCl4">
    <mxGraphModel>
      <root>
        <mxCell id="0" />
        <mxCell id="1" parent="0" />
      </root>
    </mxGraphModel>
  </diagram>
</mxfile>
